<svg width="329" height="702" viewBox="0 0 329 702" fill="none" xmlns="http://www.w3.org/2000/svg">
<path d="M61.5408 140.941L60 138.372L123.71 104.909V38H126.861V106.633L61.5408 140.941Z" fill="#30ABE5"/>
<path d="M4 79L108 79" stroke="#30ABE5" stroke-width="0.75" stroke-miterlimit="10"/>
<rect y="25" width="4" height="109" fill="#30ABE5"/>
<path d="M198 0L259.488 35.5V106.5L198 142L136.512 106.5V35.5L198 0Z" fill="#30ABE5"/>
<path d="M197.5 5L255.091 38.25V104.75L197.5 138L139.909 104.75V38.25L197.5 5Z" fill="#49BAEF"/>
<path d="M61.5408 364.941L60 362.372L123.71 328.909V262H126.861V330.633L61.5408 364.941Z" fill="#30ABE5"/>
<path d="M4 303L108 303" stroke="#30ABE5" stroke-width="0.75" stroke-miterlimit="10"/>
<rect y="249" width="4" height="109" fill="#30ABE5"/>
<path d="M198 224L259.488 259.5V330.5L198 366L136.512 330.5V259.5L198 224Z" fill="#30ABE5"/>
<path d="M267.459 252.941L269 250.372L205.29 216.909V150H202.139V218.633L267.459 252.941Z" fill="#1990F1"/>
<path d="M325 191L221 191" stroke="#1990F1" stroke-width="0.75" stroke-miterlimit="10"/>
<rect width="4" height="109" transform="matrix(-1 0 0 1 329 137)" fill="#1990F1"/>
<path d="M131 112L69.5122 147.5V218.5L131 254L192.488 218.5V147.5L131 112Z" fill="#1990F1"/>
<path d="M61.5408 588.941L60 586.372L123.71 552.909V486H126.861V554.633L61.5408 588.941Z" fill="#30ABE5"/>
<path d="M4 527L108 527" stroke="#30ABE5" stroke-width="0.75" stroke-miterlimit="10"/>
<rect y="473" width="4" height="109" fill="#30ABE5"/>
<path d="M198 448L259.488 483.5V554.5L198 590L136.512 554.5V483.5L198 448Z" fill="#30ABE5"/>
<path d="M267.459 476.941L269 474.372L205.29 440.909V374H202.139V442.633L267.459 476.941Z" fill="#1990F1"/>
<path d="M325 415L221 415" stroke="#1990F1" stroke-width="0.75" stroke-miterlimit="10"/>
<rect width="4" height="109" transform="matrix(-1 0 0 1 329 361)" fill="#1990F1"/>
<path d="M131 336L69.5122 371.5V442.5L131 478L192.488 442.5V371.5L131 336Z" fill="#1990F1"/>
<path d="M267.459 700.941L269 698.372L205.29 664.909V598H202.139V666.633L267.459 700.941Z" fill="#1990F1"/>
<path d="M325 639L221 639" stroke="#1990F1" stroke-width="0.75" stroke-miterlimit="10"/>
<rect width="4" height="109" transform="matrix(-1 0 0 1 329 585)" fill="#1990F1"/>
<path d="M131 560L69.5122 595.5V666.5L131 702L192.488 666.5V595.5L131 560Z" fill="#1990F1"/>
<path d="M228.107 64.1353L224.576 62.9185H212.682L221.092 54.5083L222.729 51.1509C222.885 50.8304 222.844 50.45 222.628 50.167C221.805 49.0938 220.903 48.0618 219.92 47.0797C218.938 46.0975 217.906 45.1954 216.833 44.3727C216.55 44.1557 216.17 44.1149 215.849 44.2712L212.492 45.9079L204.082 54.3181L191.919 83.6821V95.5759L193.135 99.1073C193.252 99.4444 193.549 99.6846 193.903 99.7313C195.244 99.9084 196.611 100 198 100C199.389 100 200.757 99.9084 202.097 99.7313C202.451 99.6846 202.749 99.4444 202.865 99.1073L204.082 95.5759V83.6821L212.492 92.0923L215.849 93.729C216.17 93.8852 216.55 93.8445 216.833 93.6276C217.906 92.8049 218.938 91.9027 219.92 90.9205C220.903 89.9384 221.805 88.9065 222.628 87.8333C222.844 87.5503 222.885 87.1699 222.729 86.8494L221.092 83.4919L212.682 75.0817H224.576L228.107 73.8649C228.444 73.7488 228.685 73.451 228.731 73.0975C228.908 71.7568 229 70.3892 229 69.0002C229 67.6113 228.908 66.2437 228.731 64.903C228.684 64.5492 228.444 64.2514 228.107 64.1353Z" fill="#7587B3"/>
<path d="M202.865 38.8928C202.749 38.5558 202.451 38.3156 202.097 38.2688C200.757 38.0917 199.389 38 198 38C196.611 38 195.243 38.0917 193.903 38.2688C193.549 38.3155 193.251 38.5558 193.135 38.8928L191.919 42.4242V54.318L183.508 45.9078L180.151 44.2711C179.83 44.1149 179.45 44.1556 179.167 44.3725C178.094 45.1952 177.062 46.0974 176.08 47.0796C175.098 48.0617 174.195 49.0936 173.373 50.1668C173.156 50.4498 173.115 50.8303 173.271 51.1507L174.908 54.5082L183.318 62.9184H171.424L167.893 64.1352C167.556 64.2513 167.316 64.5491 167.269 64.9026C167.092 66.2434 167 67.6109 167 69C167 70.3891 167.092 71.7566 167.269 73.0972C167.315 73.4508 167.556 73.7486 167.893 73.8647L171.424 75.0815H183.318L174.908 83.4917L173.271 86.8491C173.115 87.1696 173.156 87.55 173.373 87.833C174.195 88.9062 175.097 89.9382 176.08 90.9203C177.062 91.9025 178.094 92.8046 179.167 93.6273C179.45 93.8443 179.83 93.8851 180.151 93.7288L183.508 92.0921L191.918 83.6819L204.081 54.3179V42.4242L202.865 38.8928Z" fill="#87A1C1"/>
<path d="M198 96.2575C213.054 96.2575 225.258 84.0539 225.258 69C225.258 53.9461 213.054 41.7425 198 41.7425C182.946 41.7425 170.742 53.9461 170.742 69C170.742 84.0539 182.946 96.2575 198 96.2575Z" fill="#9ABBD0"/>
<path d="M198 45.4849V92.5151C210.987 92.5151 221.515 81.9871 221.515 69C221.515 56.0129 210.987 45.4849 198 45.4849Z" fill="#7587B3"/>
<path d="M217.773 69C217.773 56.0129 208.92 45.4849 198 45.4849C185.013 45.4849 174.485 56.0129 174.485 69C174.485 81.9871 185.013 92.5151 198 92.5151C208.92 92.5151 217.773 81.9871 217.773 69Z" fill="#87A1C1"/>
<path d="M198 85.0302C206.853 85.0302 214.03 77.8532 214.03 69C214.03 60.1468 206.853 52.9698 198 52.9698C189.147 52.9698 181.97 60.1468 181.97 69C181.97 77.8532 189.147 85.0302 198 85.0302Z" fill="white"/>
<path d="M203.614 62.326C203.614 59.2256 201.1 56.7123 198 56.7123V71.6821C201.1 71.6821 203.614 69.1688 203.614 66.0684C204.647 66.0684 205.485 65.2306 205.485 64.1972C205.485 63.1638 204.647 62.326 203.614 62.326Z" fill="#FF985F"/>
<path d="M198 56.7123C194.9 56.7123 192.386 59.2256 192.386 62.326C191.353 62.326 190.515 63.1638 190.515 64.1972C190.515 65.2306 191.353 66.0684 192.386 66.0684C192.386 69.1688 194.9 71.6821 198 71.6821C199.033 71.6821 199.871 69.1688 199.871 66.0684V62.326C199.871 59.2256 199.033 56.7123 198 56.7123Z" fill="#FFB464"/>
<path d="M203.614 75.4245H199.871L205.11 79.0209C205.671 78.6221 206.197 78.1777 206.683 77.6928C207.114 77.263 207.028 76.5415 206.507 76.2273C205.662 75.7178 204.672 75.4245 203.614 75.4245Z" fill="#23AEEC"/>
<path d="M199.871 75.4245H192.386C191.328 75.4245 190.338 75.718 189.492 76.2276C188.97 76.5425 188.888 77.2646 189.319 77.6955C191.542 79.915 194.611 81.2877 198 81.2877C200.65 81.2877 203.103 80.4478 205.11 79.0209C204.299 76.9175 202.26 75.4245 199.871 75.4245Z" fill="#14CFFF"/>
<path d="M197.5 228L255.091 261.25V327.75L197.5 361L139.909 327.75V261.25L197.5 228Z" fill="#49BAEF"/>
<path d="M197.5 452L255.091 485.25V551.75L197.5 585L139.909 551.75V485.25L197.5 452Z" fill="#49BAEF"/>
<path d="M131.5 340L189.091 373.25V439.75L131.5 473L73.9093 439.75V373.25L131.5 340Z" fill="#4BA7F3"/>
<path d="M131.5 564L189.091 597.25V663.75L131.5 697L73.9093 663.75V597.25L131.5 564Z" fill="#4BA7F3"/>
<path d="M131.5 117L189.091 150.25V216.75L131.5 250L73.9093 216.75V150.25L131.5 117Z" fill="#4BA7F3"/>
<path d="M151.344 162.594V172.281C151.344 172.795 151.14 173.288 150.776 173.651C150.413 174.015 149.92 174.219 149.406 174.219H110.656C108.858 174.219 107.133 173.504 105.861 172.233C104.589 170.961 103.875 169.236 103.875 167.438C103.875 165.639 104.589 163.914 105.861 162.642C107.133 161.371 108.858 160.656 110.656 160.656H149.406C149.92 160.656 150.413 160.86 150.776 161.224C151.14 161.587 151.344 162.08 151.344 162.594Z" fill="#636978"/>
<path d="M107.75 167.438C107.75 165.639 108.464 163.914 109.736 162.642C111.008 161.371 112.733 160.656 114.531 160.656H110.656C108.858 160.656 107.133 161.371 105.861 162.642C104.589 163.914 103.875 165.639 103.875 167.438C103.875 169.236 104.589 170.961 105.861 172.233C107.133 173.504 108.858 174.219 110.656 174.219H114.531C112.733 174.219 111.008 173.504 109.736 172.233C108.464 170.961 107.75 169.236 107.75 167.438Z" fill="#7584F2"/>
<path d="M143.594 158.719V172.281C143.594 172.795 143.39 173.288 143.026 173.651C142.663 174.015 142.17 174.219 141.656 174.219H125.188C124.674 174.219 124.181 174.015 123.817 173.651C123.454 173.288 123.25 172.795 123.25 172.281V156.781C123.25 156.267 123.454 155.775 123.817 155.411C124.181 155.048 124.674 154.844 125.188 154.844H139.719C140.746 154.844 141.732 155.252 142.459 155.979C143.185 156.705 143.594 157.691 143.594 158.719Z" fill="#FFCE00"/>
<path d="M139.719 154.844H136.812C137.84 154.844 138.826 155.252 139.553 155.979C140.279 156.705 140.688 157.691 140.688 158.719V172.281C140.688 172.795 140.483 173.288 140.12 173.651C139.757 174.015 139.264 174.219 138.75 174.219H141.656C142.17 174.219 142.663 174.015 143.026 173.651C143.39 173.288 143.594 172.795 143.594 172.281V158.719C143.594 157.691 143.185 156.705 142.459 155.979C141.732 155.252 140.746 154.844 139.719 154.844Z" fill="#FDBA12"/>
<path d="M134.875 158.719V172.281C134.875 172.795 134.671 173.288 134.308 173.651C133.944 174.015 133.451 174.219 132.938 174.219H115.5C114.986 174.219 114.493 174.015 114.13 173.651C113.767 173.288 113.562 172.795 113.562 172.281V158.719C113.562 157.691 113.971 156.705 114.697 155.979C115.424 155.252 116.41 154.844 117.438 154.844H131C132.028 154.844 133.013 155.252 133.74 155.979C134.467 156.705 134.875 157.691 134.875 158.719Z" fill="#2FD58B"/>
<path d="M131 154.844H128.094C129.121 154.844 130.107 155.252 130.834 155.979C131.56 156.705 131.969 157.691 131.969 158.719V172.281C131.969 172.795 131.765 173.288 131.401 173.651C131.038 174.015 130.545 174.219 130.031 174.219H132.938C133.451 174.219 133.944 174.015 134.308 173.651C134.671 173.288 134.875 172.795 134.875 172.281V158.719C134.875 157.691 134.467 156.705 133.74 155.979C133.013 155.252 132.028 154.844 131 154.844Z" fill="#20B76B"/>
<path d="M126.156 172.281H122.281V161.625H126.156V172.281Z" fill="white"/>
<path d="M154.25 176.156V201.344C154.25 202.885 153.638 204.364 152.548 205.454C151.458 206.544 149.979 207.156 148.438 207.156H109.688C108.146 207.156 106.667 206.544 105.577 205.454C104.487 204.364 103.875 202.885 103.875 201.344V167.438C103.875 166.924 104.079 166.431 104.442 166.067C104.806 165.704 105.299 165.5 105.812 165.5C106.326 165.5 106.819 165.704 107.183 166.067C107.546 166.431 107.75 166.924 107.75 167.438C107.75 168.208 108.056 168.948 108.601 169.493C109.146 170.038 109.885 170.344 110.656 170.344H148.438C149.979 170.344 151.458 170.956 152.548 172.046C153.638 173.136 154.25 174.615 154.25 176.156Z" fill="#7584F2"/>
<path d="M149.329 170.421C149.384 170.715 149.41 171.014 149.406 171.312C149.406 179.534 146.14 187.419 140.326 193.233C134.513 199.046 126.628 202.312 118.406 202.312H104.844C104.545 202.316 104.246 202.29 103.952 202.235C104.165 203.604 104.859 204.853 105.911 205.755C106.963 206.657 108.302 207.154 109.687 207.156H148.437C149.979 207.156 151.457 206.544 152.547 205.454C153.638 204.364 154.25 202.885 154.25 201.344V176.156C154.248 174.771 153.751 173.431 152.848 172.38C151.946 171.328 150.698 170.634 149.329 170.421Z" fill="#4855B7"/>
<path d="M159.094 185.844V191.656C159.094 192.292 158.968 192.922 158.725 193.51C158.482 194.098 158.125 194.632 157.675 195.081C157.225 195.531 156.691 195.888 156.104 196.131C155.516 196.375 154.886 196.5 154.25 196.5H144.562C143.926 196.5 143.297 196.375 142.709 196.131C142.121 195.888 141.587 195.531 141.137 195.081C140.688 194.632 140.331 194.098 140.087 193.51C139.844 192.922 139.719 192.292 139.719 191.656V185.844C139.719 184.559 140.229 183.327 141.137 182.419C142.046 181.51 143.278 181 144.562 181H154.25C155.535 181 156.767 181.51 157.675 182.419C158.583 183.327 159.094 184.559 159.094 185.844Z" fill="#636978"/>
<path d="M155.132 181.087C155.19 181.377 155.219 181.673 155.219 181.969C155.219 184.795 154.096 187.505 152.098 189.504C150.099 191.502 147.389 192.625 144.562 192.625H140.687C140.391 192.625 140.096 192.596 139.806 192.538C140.012 193.65 140.6 194.654 141.469 195.378C142.337 196.102 143.432 196.499 144.562 196.5H154.25C154.886 196.5 155.516 196.375 156.104 196.131C156.691 195.888 157.225 195.531 157.675 195.081C158.125 194.632 158.482 194.098 158.725 193.51C158.968 192.922 159.094 192.292 159.094 191.656V185.844C159.092 184.713 158.695 183.619 157.972 182.75C157.248 181.881 156.243 181.293 155.132 181.087Z" fill="#414952"/>
<path d="M152.312 190.688H146.5V186.812H152.312V190.688Z" fill="white"/>
<g clip-path="url(#clip0_120_359)">
<path d="M187.485 303.993L173.625 317.847L170.096 324.904C171.558 326.365 173.927 326.365 175.389 324.904L189.246 311.047L187.485 303.993Z" fill="#323752"/>
<path d="M170.096 319.611C168.635 321.073 168.635 323.442 170.096 324.904L189.246 305.754H183.953L170.096 319.611Z" fill="#4A527B"/>
<path d="M193.215 307.077L188.809 302.671L186.6 308.4L189.246 311.047L193.215 307.077Z" fill="#9ABBD0"/>
<path d="M183.948 305.751L187.916 301.783L190.562 304.428L186.593 308.397L183.948 305.751Z" fill="#ACD5DF"/>
<path d="M197.143 295.205L199.789 297.851L191.058 306.583L188.412 303.937L197.143 295.205Z" fill="#9ABBD0"/>
<path d="M194.539 305.754L191.892 303.108L189.246 305.754L191.892 308.4C192.623 309.131 193.808 309.131 194.539 308.4C195.269 307.67 195.269 306.485 194.539 305.754Z" fill="#ACD5DF"/>
<path d="M191.892 305.754C192.623 305.023 192.623 303.839 191.892 303.108L189.246 300.461C188.515 299.731 187.331 299.731 186.6 300.461C185.869 301.192 185.869 302.377 186.6 303.108L189.246 305.754C189.977 306.485 191.162 306.485 191.892 305.754Z" fill="#C5F3FF"/>
<path d="M210.417 264V305.167C221.784 305.167 231 295.951 231 284.583C231 273.216 221.784 264 210.417 264Z" fill="#9ABBD0"/>
<path d="M227.258 284.583C227.258 273.216 219.718 264 210.417 264C199.049 264 189.833 273.216 189.833 284.583C189.833 295.951 199.049 305.167 210.417 305.167C219.718 305.167 227.258 295.951 227.258 284.583Z" fill="#ACD5DF"/>
<path d="M210.416 271.529L193.62 284.584C193.62 293.86 201.14 301.38 210.416 301.38C219.693 301.38 227.213 293.86 227.213 284.584L210.416 271.529Z" fill="white"/>
<path d="M218.623 280.458L220.495 284.584C220.495 286.439 221.998 287.943 223.854 287.943C225.709 287.943 227.213 286.439 227.213 284.584V282.329L218.623 280.458Z" fill="#FFB464"/>
<path d="M220.495 271.146L218.623 282.329H227.062C226.45 277.766 224.006 273.784 220.495 271.146Z" fill="#FFD06A"/>
<path d="M211.905 280.458L213.776 284.584C213.776 286.439 215.28 287.943 217.135 287.943C218.99 287.943 220.494 286.439 220.494 284.584V282.329L211.905 280.458Z" fill="#CC3245"/>
<path d="M213.776 268.123L211.905 282.329H220.494V271.146C218.541 269.678 216.258 268.627 213.776 268.123Z" fill="#FF3E3A"/>
<path d="M205.186 280.458L207.057 284.584C207.057 286.439 208.561 287.943 210.417 287.943C212.272 287.943 213.776 286.439 213.776 284.584V282.329L205.186 280.458Z" fill="#FFB464"/>
<path d="M205.186 282.329H213.776V268.123C212.69 267.903 211.567 267.787 210.416 267.787C209.266 267.787 208.143 267.903 207.057 268.123L205.186 282.329Z" fill="#FFD06A"/>
<path d="M198.467 280.458L200.339 284.584C200.339 286.439 201.842 287.943 203.698 287.943C205.553 287.943 207.057 286.439 207.057 284.584V282.329L198.467 280.458Z" fill="#CC3245"/>
<path d="M200.339 271.146L198.467 282.329H207.057V268.123C204.575 268.627 202.292 269.678 200.339 271.146Z" fill="#FF3E3A"/>
<path d="M193.62 282.329V284.584C193.62 286.439 195.124 287.943 196.979 287.943C198.834 287.943 200.339 286.439 200.339 284.584V282.329L196.979 280.458L193.62 282.329Z" fill="#FFB464"/>
<path d="M200.339 282.329V271.146C196.827 273.784 194.383 277.766 193.771 282.329H200.339Z" fill="#FFD06A"/>
</g>
<g clip-path="url(#clip1_120_359)">
<path d="M147.5 408.938C147.421 408.938 147.341 408.928 147.264 408.908C147.141 408.878 147.025 408.823 146.923 408.747C146.82 408.671 146.734 408.576 146.668 408.467C146.603 408.358 146.56 408.237 146.541 408.111C146.522 407.985 146.528 407.857 146.559 407.733L148.981 398.046C149.034 397.836 149.155 397.65 149.325 397.517C149.496 397.384 149.706 397.312 149.922 397.313H156.219C156.476 397.313 156.722 397.415 156.904 397.596C157.085 397.778 157.187 398.024 157.187 398.281C157.187 398.538 157.085 398.785 156.904 398.966C156.722 399.148 156.476 399.25 156.219 399.25H150.678L148.44 408.204C148.387 408.414 148.266 408.6 148.096 408.732C147.926 408.865 147.716 408.937 147.5 408.938Z" fill="url(#paint0_linear_120_359)"/>
<path d="M148.263 407.373C148.173 407.257 148.057 407.163 147.925 407.098C147.792 407.034 147.647 407 147.5 407H107.781C107.634 407 107.489 407.034 107.356 407.098C107.224 407.163 107.108 407.257 107.018 407.373C106.927 407.489 106.864 407.624 106.834 407.768C106.803 407.912 106.806 408.061 106.842 408.204L112.654 431.454C112.707 431.664 112.827 431.85 112.998 431.982C113.168 432.115 113.378 432.187 113.594 432.188H141.687C141.903 432.187 142.113 432.115 142.283 431.982C142.454 431.85 142.575 431.664 142.627 431.454L148.44 408.204C148.475 408.061 148.478 407.912 148.447 407.768C148.417 407.624 148.354 407.489 148.263 407.373Z" fill="url(#paint1_linear_120_359)"/>
<path d="M139.617 432.188H141.687C141.903 432.187 142.113 432.115 142.283 431.982C142.454 431.85 142.575 431.664 142.627 431.454L148.44 408.204C148.475 408.061 148.478 407.912 148.448 407.768C148.417 407.624 148.354 407.489 148.264 407.373C148.173 407.257 148.057 407.163 147.925 407.098C147.792 407.034 147.647 407 147.5 407H114.43L139.617 432.188Z" fill="url(#paint2_linear_120_359)"/>
<path d="M109.448 418.625L112.654 431.454C112.707 431.664 112.828 431.85 112.998 431.982C113.168 432.115 113.378 432.187 113.594 432.188H141.688C141.903 432.187 142.113 432.115 142.283 431.982C142.454 431.85 142.575 431.664 142.627 431.454L145.834 418.625H109.448Z" fill="url(#paint3_linear_120_359)"/>
<path d="M117.469 438C119.609 438 121.344 436.265 121.344 434.125C121.344 431.985 119.609 430.25 117.469 430.25C115.329 430.25 113.594 431.985 113.594 434.125C113.594 436.265 115.329 438 117.469 438Z" fill="url(#paint4_linear_120_359)"/>
<path d="M137.812 438C139.953 438 141.688 436.265 141.688 434.125C141.688 431.985 139.953 430.25 137.812 430.25C135.672 430.25 133.938 431.985 133.938 434.125C133.938 436.265 135.672 438 137.812 438Z" fill="url(#paint5_linear_120_359)"/>
<path d="M111.656 386.736V402.075C111.656 402.415 111.746 402.749 111.916 403.044C112.086 403.338 112.33 403.583 112.625 403.753L126.188 411.583C126.482 411.753 126.816 411.843 127.156 411.843C127.496 411.843 127.83 411.753 128.125 411.583L141.688 403.753C141.982 403.583 142.227 403.338 142.397 403.044C142.567 402.749 142.656 402.415 142.656 402.075V386.736C142.656 386.396 142.567 386.061 142.397 385.767C142.227 385.472 141.982 385.228 141.688 385.058L128.125 377.227C127.83 377.057 127.496 376.968 127.156 376.968C126.816 376.968 126.482 377.057 126.188 377.227L112.625 385.058C112.33 385.228 112.086 385.472 111.916 385.767C111.746 386.061 111.656 386.396 111.656 386.736Z" fill="url(#paint6_linear_120_359)"/>
<path d="M113.594 402.075V386.736L127.156 378.905L140.719 386.736V402.075L127.156 409.905L113.594 402.075Z" fill="url(#paint7_linear_120_359)"/>
<path d="M132.242 384.13L128.367 381.893C128.22 381.808 128.053 381.763 127.883 381.763C127.713 381.763 127.546 381.808 127.398 381.893L126.43 382.452C126.282 382.537 126.16 382.659 126.075 382.806C125.99 382.954 125.945 383.121 125.945 383.291V406.466C125.945 406.723 126.047 406.97 126.229 407.151C126.411 407.333 126.657 407.435 126.914 407.435C127.171 407.435 127.417 407.333 127.599 407.151C127.781 406.97 127.883 406.723 127.883 406.466V396.294H131.273C131.53 396.294 131.777 396.192 131.958 396.011C132.14 395.829 132.242 395.583 132.242 395.326C132.242 395.069 132.14 394.822 131.958 394.641C131.777 394.459 131.53 394.357 131.273 394.357H127.883V383.847L131.273 385.805C131.496 385.933 131.761 385.968 132.009 385.901C132.257 385.835 132.469 385.672 132.597 385.45C132.726 385.227 132.76 384.963 132.694 384.714C132.627 384.466 132.465 384.254 132.242 384.126V384.13Z" fill="url(#paint8_linear_120_359)"/>
<path d="M139.992 388.604L135.148 385.808C134.926 385.679 134.661 385.644 134.413 385.711C134.165 385.778 133.953 385.94 133.825 386.163C133.696 386.385 133.661 386.65 133.728 386.898C133.794 387.146 133.957 387.358 134.18 387.486L135.633 388.325V402.591C135.633 402.848 135.735 403.095 135.916 403.276C136.098 403.458 136.345 403.56 136.601 403.56C136.858 403.56 137.105 403.458 137.286 403.276C137.468 403.095 137.57 402.848 137.57 402.591V389.443L139.023 390.283C139.134 390.347 139.255 390.388 139.381 390.405C139.508 390.421 139.636 390.413 139.759 390.38C139.882 390.347 139.997 390.29 140.098 390.213C140.199 390.135 140.284 390.038 140.347 389.928C140.411 389.818 140.452 389.696 140.469 389.57C140.485 389.444 140.477 389.316 140.444 389.193C140.411 389.07 140.354 388.955 140.276 388.854C140.199 388.753 140.102 388.668 139.992 388.604Z" fill="url(#paint9_linear_120_359)"/>
<path d="M122.555 385.638C122.298 385.638 122.051 385.74 121.87 385.922C121.688 386.104 121.586 386.35 121.586 386.607V399.015L117.642 389.154C117.559 388.944 117.405 388.771 117.207 388.662C117.01 388.554 116.781 388.518 116.559 388.561C116.338 388.603 116.138 388.722 115.995 388.896C115.852 389.069 115.773 389.288 115.773 389.513V402.107C115.773 402.364 115.876 402.61 116.057 402.792C116.239 402.974 116.485 403.076 116.742 403.076C116.999 403.076 117.246 402.974 117.427 402.792C117.609 402.61 117.711 402.364 117.711 402.107V394.543L121.655 404.405C121.727 404.584 121.851 404.738 122.011 404.847C122.171 404.955 122.36 405.013 122.554 405.013C122.615 405.013 122.677 405.007 122.738 404.996C122.959 404.953 123.158 404.835 123.302 404.661C123.445 404.488 123.523 404.27 123.523 404.044V386.607C123.523 386.35 123.421 386.104 123.24 385.922C123.058 385.74 122.812 385.638 122.555 385.638Z" fill="url(#paint10_linear_120_359)"/>
<path d="M127.156 412.812C126.646 412.813 126.145 412.679 125.703 412.425L112.141 404.595C111.699 404.339 111.332 403.971 111.077 403.529C110.822 403.087 110.688 402.586 110.688 402.076V386.736C110.688 386.225 110.823 385.724 111.078 385.282C111.333 384.84 111.699 384.473 112.141 384.217L125.703 376.387C126.145 376.133 126.646 375.999 127.156 375.999C127.666 375.999 128.167 376.133 128.609 376.387L142.172 384.217C142.613 384.473 142.98 384.84 143.235 385.282C143.49 385.724 143.624 386.225 143.625 386.736V402.075C143.625 402.585 143.49 403.086 143.235 403.528C142.98 403.97 142.613 404.338 142.172 404.594L128.609 412.425C128.167 412.679 127.666 412.813 127.156 412.812ZM127.156 377.937C126.986 377.938 126.819 377.982 126.672 378.067L113.109 385.898C112.962 385.983 112.84 386.105 112.755 386.252C112.67 386.4 112.625 386.567 112.625 386.737V402.075C112.625 402.245 112.67 402.412 112.755 402.559C112.84 402.706 112.962 402.829 113.109 402.914L126.672 410.744C126.819 410.829 126.986 410.874 127.156 410.874C127.326 410.874 127.493 410.829 127.641 410.744L141.203 402.914C141.35 402.829 141.473 402.706 141.558 402.559C141.643 402.412 141.687 402.245 141.688 402.075V386.736C141.688 386.565 141.643 386.398 141.558 386.251C141.473 386.103 141.351 385.981 141.203 385.896L127.641 378.066C127.493 377.982 127.326 377.937 127.156 377.937Z" fill="url(#paint11_linear_120_359)"/>
<path d="M131.516 383.694L127.641 381.457C127.493 381.372 127.326 381.327 127.156 381.327C126.986 381.327 126.819 381.372 126.672 381.457L125.703 382.016C125.556 382.101 125.434 382.223 125.349 382.371C125.264 382.518 125.219 382.685 125.219 382.855V406.031C125.219 406.288 125.321 406.535 125.502 406.716C125.684 406.898 125.931 407 126.188 407C126.444 407 126.691 406.898 126.873 406.716C127.054 406.535 127.156 406.288 127.156 406.031V395.859H130.547C130.804 395.859 131.05 395.757 131.232 395.576C131.414 395.394 131.516 395.148 131.516 394.891C131.516 394.634 131.414 394.387 131.232 394.206C131.05 394.024 130.804 393.922 130.547 393.922H127.156V383.415L130.547 385.373C130.77 385.501 131.034 385.536 131.282 385.469C131.531 385.403 131.742 385.24 131.871 385.018C131.999 384.795 132.034 384.53 131.967 384.282C131.901 384.034 131.738 383.822 131.516 383.694Z" fill="url(#paint12_linear_120_359)"/>
<path d="M139.266 388.168L134.422 385.372C134.199 385.243 133.935 385.208 133.686 385.275C133.438 385.342 133.226 385.504 133.098 385.727C132.97 385.949 132.935 386.214 133.001 386.462C133.068 386.71 133.23 386.922 133.453 387.051L134.906 387.889V402.156C134.906 402.413 135.008 402.66 135.19 402.841C135.372 403.023 135.618 403.125 135.875 403.125C136.132 403.125 136.378 403.023 136.56 402.841C136.742 402.66 136.844 402.413 136.844 402.156V389.007L138.297 389.846C138.519 389.973 138.783 390.006 139.029 389.939C139.276 389.872 139.487 389.71 139.615 389.489C139.742 389.267 139.778 389.004 139.712 388.757C139.647 388.509 139.486 388.298 139.266 388.168Z" fill="url(#paint13_linear_120_359)"/>
<path d="M121.828 385.203C121.571 385.203 121.325 385.305 121.143 385.487C120.961 385.669 120.859 385.915 120.859 386.172V398.579L116.916 388.717C116.832 388.507 116.678 388.333 116.48 388.225C116.283 388.117 116.053 388.081 115.832 388.124C115.61 388.167 115.411 388.286 115.268 388.46C115.124 388.634 115.046 388.853 115.047 389.078V401.672C115.047 401.929 115.149 402.175 115.331 402.357C115.512 402.539 115.759 402.641 116.016 402.641C116.273 402.641 116.519 402.539 116.701 402.357C116.882 402.175 116.984 401.929 116.984 401.672V394.107L120.928 403.968C121 404.148 121.124 404.302 121.285 404.411C121.445 404.519 121.634 404.577 121.828 404.577C121.89 404.577 121.951 404.571 122.011 404.56C122.232 404.517 122.431 404.399 122.575 404.226C122.718 404.052 122.797 403.834 122.797 403.609V386.172C122.797 385.915 122.695 385.669 122.513 385.487C122.331 385.305 122.085 385.203 121.828 385.203Z" fill="url(#paint14_linear_120_359)"/>
<path d="M117.469 436.062C118.539 436.062 119.406 435.195 119.406 434.125C119.406 433.055 118.539 432.188 117.469 432.188C116.399 432.188 115.531 433.055 115.531 434.125C115.531 435.195 116.399 436.062 117.469 436.062Z" fill="url(#paint15_linear_120_359)"/>
<path d="M137.812 436.062C138.883 436.062 139.75 435.195 139.75 434.125C139.75 433.055 138.883 432.188 137.812 432.188C136.742 432.188 135.875 433.055 135.875 434.125C135.875 435.195 136.742 436.062 137.812 436.062Z" fill="url(#paint16_linear_120_359)"/>
</g>
<g clip-path="url(#clip2_120_359)">
<path d="M149.098 612.539L134.924 605.968C132.141 604.677 128.93 604.677 126.147 605.968L111.973 612.539C109.372 613.745 107.638 616.283 107.48 619.145C107.169 624.779 107.458 634.237 111.911 640.761C116.059 646.837 122.185 651.763 126.264 654.644C128.825 656.452 132.245 656.452 134.806 654.644C138.886 651.763 145.011 646.837 149.159 640.761C153.613 634.237 153.902 624.78 153.591 619.145C153.432 616.283 151.699 613.745 149.098 612.539Z" fill="#CCF8FF"/>
<path d="M126.147 605.968L111.973 612.539C109.372 613.745 107.638 616.283 107.48 619.145C107.169 624.78 107.458 634.237 111.911 640.761C115.101 645.433 119.459 649.425 123.157 652.33C122.673 649.256 123.225 646.946 124.043 645.285C124.969 643.405 126.759 642.125 128.811 641.701C132.453 640.948 134.597 637.128 134.521 637.163C128.361 635.267 125.055 630.043 123.333 625.493C121.938 621.806 123.584 617.682 127.084 615.866C133.121 612.734 137.526 607.174 137.526 607.174L134.924 605.968C132.141 604.677 128.93 604.677 126.147 605.968Z" fill="#ABEBF4"/>
<path d="M130.536 651.412C129.951 651.412 129.389 651.234 128.911 650.896C124.925 648.083 119.399 643.592 115.7 638.174C111.936 632.659 111.804 624.043 112.061 619.398C112.125 618.231 112.831 617.198 113.902 616.701L128.077 610.13C128.853 609.77 129.68 609.588 130.536 609.588C131.391 609.588 132.218 609.77 132.994 610.13L147.169 616.701C148.24 617.198 148.945 618.231 149.01 619.398C149.267 624.043 149.135 632.659 145.37 638.174C141.672 643.592 136.145 648.083 132.16 650.896C131.682 651.234 131.12 651.412 130.536 651.412Z" fill="#7AC1DD"/>
<path d="M127.084 615.866C129.91 614.4 132.378 612.402 134.204 610.691L132.994 610.13C132.218 609.77 131.391 609.588 130.535 609.588C129.68 609.588 128.853 609.77 128.076 610.13L113.902 616.701C112.831 617.198 112.125 618.231 112.061 619.398C111.804 624.043 111.936 632.659 115.7 638.174C117.889 641.38 120.718 644.262 123.489 646.663C123.649 646.162 123.838 645.702 124.043 645.285C124.969 643.405 126.759 642.125 128.811 641.701C132.453 640.949 134.597 637.128 134.521 637.163C128.361 635.267 125.055 630.043 123.333 625.493C121.938 621.806 123.584 617.682 127.084 615.866Z" fill="#61A5CE"/>
<path d="M139.977 628.602C139.977 633.816 135.75 638.043 130.535 638.043C125.321 638.043 121.094 633.816 121.094 628.602C121.094 623.387 125.321 619.16 130.535 619.16C135.75 619.16 139.977 623.387 139.977 628.602Z" fill="#B2E59C"/>
<path d="M129.732 633.389C129.315 633.389 128.917 633.22 128.627 632.921L125.843 630.053C125.251 629.443 125.265 628.468 125.876 627.876C126.485 627.284 127.46 627.299 128.052 627.909L129.721 629.628L133.863 625.278C134.45 624.662 135.424 624.638 136.04 625.225C136.656 625.811 136.679 626.785 136.093 627.401L130.846 632.911C130.557 633.214 130.158 633.387 129.739 633.389C129.736 633.389 129.734 633.389 129.732 633.389Z" fill="white"/>
</g>
<g clip-path="url(#clip3_120_359)">
<path d="M224.267 498.827L221.726 495.595C221.725 495.594 221.724 495.593 221.724 495.591L221.519 495.331C221.271 495.045 220.967 494.812 220.627 494.644C220.287 494.477 219.918 494.379 219.539 494.356L202.238 542.172L182.336 541.114L184.985 544.488C185.322 544.917 185.745 545.27 186.228 545.524C186.71 545.778 187.241 545.928 187.785 545.963L205.239 547.085C206.069 547.139 206.894 546.924 207.593 546.472C208.291 546.021 208.825 545.356 209.117 544.577L224.848 502.58C225.081 501.957 225.15 501.284 225.048 500.627C224.947 499.97 224.677 499.35 224.267 498.827Z" fill="#6562F1"/>
<path d="M222.053 498.243L206.126 540.768C205.834 541.547 205.3 542.211 204.601 542.663C203.903 543.114 203.078 543.329 202.248 543.276L184.346 542.124C183.897 542.095 183.461 541.961 183.073 541.733C182.685 541.506 182.356 541.19 182.111 540.813C181.867 540.435 181.715 540.005 181.666 539.558C181.617 539.111 181.674 538.658 181.832 538.237L197.759 495.712C198.051 494.934 198.586 494.269 199.284 493.817C199.983 493.366 200.808 493.151 201.638 493.205L219.539 494.356C219.917 494.379 220.287 494.477 220.627 494.644C220.967 494.812 221.27 495.045 221.519 495.331C221.593 495.413 221.661 495.5 221.724 495.591C221.724 495.593 221.725 495.594 221.726 495.595C221.991 495.977 222.159 496.417 222.216 496.879C222.273 497.34 222.217 497.808 222.053 498.243Z" fill="#8380F3"/>
<path d="M201.464 501.989L198.187 510.76L210.863 511.572L214.133 502.804L201.464 501.989Z" fill="#9B99F5"/>
<path d="M202.248 543.276L184.346 542.124C183.96 542.1 183.583 541.999 183.237 541.825C182.892 541.652 182.585 541.41 182.336 541.114L184.985 544.488C185.322 544.917 185.745 545.27 186.228 545.524C186.71 545.778 187.241 545.928 187.785 545.963L205.239 547.085C206.039 547.137 206.835 546.938 207.517 546.517L204.526 542.707C203.844 543.129 203.048 543.327 202.248 543.276Z" fill="#5350EF"/>
<path d="M207.522 512.012L203.933 507.44L185.646 521.799L189.235 526.37C191.879 529.737 198.115 529.252 203.165 525.287C208.214 521.322 210.165 515.379 207.522 512.012Z" fill="#E2AC40"/>
<path d="M203.52 513.975L207.828 519.461C207.982 519.11 208.119 518.758 208.233 518.408L204.282 513.376L203.52 513.975Z" fill="#F2C34E"/>
<path d="M206.244 522.15L202.065 516.827L201.303 517.425L205.624 522.929C205.842 522.673 206.049 522.413 206.244 522.15Z" fill="#F2C34E"/>
<path d="M199.177 519.424L198.415 520.022L202.779 525.58C202.908 525.484 203.037 525.387 203.165 525.287C203.292 525.187 203.417 525.084 203.541 524.981L199.177 519.424Z" fill="#F2C34E"/>
<path d="M195.84 521.448L195.078 522.046L199.387 527.534C199.688 527.406 199.99 527.268 200.29 527.117L195.84 521.448Z" fill="#F2C34E"/>
<path d="M196.399 528.435L191.88 522.68L191.118 523.278L195.28 528.579C195.647 528.551 196.021 528.502 196.399 528.435Z" fill="#F2C34E"/>
<path d="M185.309 493.548L181.023 491.29L171.089 510.146L175.374 512.404C178.214 513.9 182.74 510.892 185.484 505.685C188.227 500.479 188.149 495.045 185.309 493.548Z" fill="#DFDFDF"/>
<path d="M187.424 499.59L181.963 496.713L181.511 497.57L187.278 500.608C187.34 500.263 187.389 499.924 187.424 499.59Z" fill="#F4F4F4"/>
<path d="M180.371 502.444L179.92 503.301L185.252 506.111C185.33 505.971 185.408 505.829 185.484 505.685C185.559 505.542 185.632 505.398 185.704 505.254L180.371 502.444Z" fill="#F4F4F4"/>
<path d="M182.311 510.036L176.97 507.222L176.519 508.079L181.554 510.732C181.809 510.516 182.061 510.283 182.311 510.036Z" fill="#F4F4F4"/>
<path d="M204.321 493.377L202.58 498.025L215.597 498.863L217.338 494.215L204.321 493.377Z" fill="#6562F1"/>
<path d="M199.604 520.719C204.657 516.751 206.608 510.804 203.963 507.435C201.318 504.067 195.078 504.552 190.025 508.52C184.972 512.488 183.02 518.435 185.665 521.804C188.311 525.172 194.551 524.686 199.604 520.719Z" fill="#F2C34E"/>
<path d="M200.123 510.432L192.396 511.572L189.456 518.807L197.182 517.667L200.123 510.432Z" fill="#EAB84B"/>
<path d="M197.182 517.667L194.027 515.218L192.396 511.572L189.456 518.807L197.182 517.667Z" fill="#E2AC40"/>
<path d="M188.652 533.432L188.714 532.465L190.851 532.602L190.789 533.569L188.652 533.432Z" fill="#6562F1"/>
<path d="M193.381 533.737L193.443 532.77L203.822 533.436L203.76 534.402L193.381 533.737Z" fill="#6562F1"/>
<path d="M186.832 537.821L186.894 536.854L189.031 536.991L188.969 537.958L186.832 537.821Z" fill="#6562F1"/>
<path d="M191.179 538.1L191.241 537.133L202.84 537.877L202.778 538.844L191.179 538.1Z" fill="#6562F1"/>
<path d="M181.202 503.422C183.945 498.213 183.865 492.778 181.024 491.283C178.183 489.787 173.657 492.796 170.914 498.005C168.172 503.213 168.252 508.648 171.093 510.144C173.934 511.64 178.46 508.63 181.202 503.422Z" fill="#EDEDED"/>
<path d="M179.135 495.889L178.396 495.262L176.08 497.993L174.614 497.221L174.162 498.078L175.437 498.75L172.618 502.073C172.571 502.128 172.537 502.193 172.519 502.263C172.5 502.333 172.498 502.407 172.512 502.478C172.526 502.549 172.555 502.616 172.598 502.675C172.642 502.733 172.697 502.781 172.762 502.815L177.047 505.073L177.498 504.215L173.747 502.239L176.315 499.212L178.448 500.336L178.899 499.479L176.958 498.455L179.135 495.889Z" fill="#BEBEBE"/>
<path d="M182.866 525.181C182.431 524.809 182.038 524.39 181.696 523.93C180.681 522.568 180.129 520.915 180.055 519.019L181.023 518.981C181.089 520.678 181.577 522.149 182.473 523.352C182.772 523.753 183.115 524.119 183.495 524.444L182.866 525.181Z" fill="#BEBEBE"/>
<path d="M181.115 517.126L180.154 516.999C180.246 516.321 180.385 515.651 180.572 514.993L181.505 515.257C181.33 515.87 181.2 516.494 181.115 517.126Z" fill="#BEBEBE"/>
<path d="M191.954 501.652L191.002 501.473C191.462 499.034 191.482 496.757 191.061 494.888L192.007 494.675C192.456 496.672 192.438 499.084 191.954 501.652Z" fill="#BEBEBE"/>
<path d="M190.443 493.051C190.095 492.281 189.582 491.598 188.94 491.048L189.56 490.303C190.31 490.943 190.911 491.739 191.319 492.637L190.443 493.051Z" fill="#BEBEBE"/>
</g>
<defs>
<linearGradient id="paint0_linear_120_359" x1="146.531" y1="403.125" x2="157.187" y2="403.125" gradientUnits="userSpaceOnUse">
<stop offset="0.002" stop-color="#3F464F"/>
<stop offset="1" stop-color="#5F6E88"/>
</linearGradient>
<linearGradient id="paint1_linear_120_359" x1="106.812" y1="419.594" x2="148.469" y2="419.594" gradientUnits="userSpaceOnUse">
<stop stop-color="#A0FAFF"/>
<stop offset="1" stop-color="#4DBEE6"/>
</linearGradient>
<linearGradient id="paint2_linear_120_359" x1="122.798" y1="398.632" x2="149.22" y2="425.056" gradientUnits="userSpaceOnUse">
<stop offset="0.003" stop-color="#4D8CE3"/>
<stop offset="1" stop-color="#4DBEE6" stop-opacity="0"/>
</linearGradient>
<linearGradient id="paint3_linear_120_359" x1="127.641" y1="432.188" x2="127.641" y2="418.625" gradientUnits="userSpaceOnUse">
<stop stop-color="#4D8CE3"/>
<stop offset="0.062" stop-color="#4D95E4" stop-opacity="0.819"/>
<stop offset="0.139" stop-color="#4D9FE4" stop-opacity="0.628"/>
<stop offset="0.222" stop-color="#4DA7E5" stop-opacity="0.459"/>
<stop offset="0.31" stop-color="#4DAEE5" stop-opacity="0.316"/>
<stop offset="0.404" stop-color="#4DB4E5" stop-opacity="0.201"/>
<stop offset="0.507" stop-color="#4DB8E6" stop-opacity="0.111"/>
<stop offset="0.624" stop-color="#4DBCE6" stop-opacity="0.048"/>
<stop offset="0.765" stop-color="#4DBDE6" stop-opacity="0.011"/>
<stop offset="1" stop-color="#4DBEE6" stop-opacity="0"/>
</linearGradient>
<linearGradient id="paint4_linear_120_359" x1="117.469" y1="438" x2="117.469" y2="430.25" gradientUnits="userSpaceOnUse">
<stop offset="0.002" stop-color="#3F464F"/>
<stop offset="1" stop-color="#5F6E88"/>
</linearGradient>
<linearGradient id="paint5_linear_120_359" x1="137.812" y1="438" x2="137.812" y2="430.25" gradientUnits="userSpaceOnUse">
<stop offset="0.002" stop-color="#3F464F"/>
<stop offset="1" stop-color="#5F6E88"/>
</linearGradient>
<linearGradient id="paint6_linear_120_359" x1="127.156" y1="411.843" x2="127.156" y2="376.968" gradientUnits="userSpaceOnUse">
<stop stop-color="#FFEA34"/>
<stop offset="1" stop-color="#F3BE36"/>
</linearGradient>
<linearGradient id="paint7_linear_120_359" x1="127.156" y1="409.905" x2="127.156" y2="378.905" gradientUnits="userSpaceOnUse">
<stop stop-color="#F3B436"/>
<stop offset="1" stop-color="#FFEA3C"/>
</linearGradient>
<linearGradient id="paint8_linear_120_359" x1="121.227" y1="387.609" x2="134.185" y2="400.566" gradientUnits="userSpaceOnUse">
<stop stop-color="#C17636"/>
<stop offset="1" stop-color="#F3B436" stop-opacity="0"/>
</linearGradient>
<linearGradient id="paint9_linear_120_359" x1="130.989" y1="388.951" x2="141.3" y2="399.263" gradientUnits="userSpaceOnUse">
<stop stop-color="#C17636"/>
<stop offset="1" stop-color="#F3B436" stop-opacity="0"/>
</linearGradient>
<linearGradient id="paint10_linear_120_359" x1="115.089" y1="389.797" x2="126.63" y2="401.339" gradientUnits="userSpaceOnUse">
<stop stop-color="#C17636"/>
<stop offset="1" stop-color="#F3B436" stop-opacity="0"/>
</linearGradient>
<linearGradient id="paint11_linear_120_359" x1="101" y1="412.811" x2="127.156" y2="376" gradientUnits="userSpaceOnUse">
<stop stop-color="#F3B436"/>
<stop offset="1" stop-color="#FFEA3C"/>
</linearGradient>
<linearGradient id="paint12_linear_120_359" x1="128.609" y1="406.999" x2="128.609" y2="381.327" gradientUnits="userSpaceOnUse">
<stop stop-color="#FFDC46"/>
<stop offset="1" stop-color="#FFF578"/>
</linearGradient>
<linearGradient id="paint13_linear_120_359" x1="136.359" y1="403.124" x2="136.359" y2="385.242" gradientUnits="userSpaceOnUse">
<stop stop-color="#FFDC46"/>
<stop offset="1" stop-color="#FFF578"/>
</linearGradient>
<linearGradient id="paint14_linear_120_359" x1="118.922" y1="404.577" x2="118.922" y2="385.202" gradientUnits="userSpaceOnUse">
<stop stop-color="#FFDC46"/>
<stop offset="1" stop-color="#FFF578"/>
</linearGradient>
<linearGradient id="paint15_linear_120_359" x1="117.469" y1="436.062" x2="117.469" y2="432.188" gradientUnits="userSpaceOnUse">
<stop stop-color="#5F6E88"/>
<stop offset="0.998" stop-color="#3F464F"/>
</linearGradient>
<linearGradient id="paint16_linear_120_359" x1="137.812" y1="376" x2="137.812" y2="376" gradientUnits="userSpaceOnUse">
<stop stop-color="#5F6E88"/>
<stop offset="0.998" stop-color="#3F464F"/>
</linearGradient>
<clipPath id="clip0_120_359">
<rect width="62" height="62" fill="white" transform="translate(169 264)"/>
</clipPath>
<clipPath id="clip1_120_359">
<rect width="62" height="62" fill="white" transform="translate(101 376)"/>
</clipPath>
<clipPath id="clip2_120_359">
<rect width="51" height="51" fill="white" transform="translate(105 605)"/>
</clipPath>
<clipPath id="clip3_120_359">
<rect width="62" height="62" fill="white" transform="translate(166 488)"/>
</clipPath>
</defs>
</svg>
